Coordinates
version=1
nRows=7
nColumns=40
inDegrees=yes

Units are S.I. units (second, meters, Newtons, ...)
Angles are in degrees.

endheader
time	pelvis_tilt	pelvis_list	pelvis_rotation	pelvis_tx	pelvis_ty	pelvis_tz	hip_flexion_r	hip_adduction_r	hip_rotation_r	knee_angle_r	knee_angle_r_beta	ankle_angle_r	subtalar_angle_r	mtp_angle_r	hip_flexion_l	hip_adduction_l	hip_rotation_l	knee_angle_l	knee_angle_l_beta	ankle_angle_l	subtalar_angle_l	mtp_angle_l	lumbar_extension	lumbar_bending	lumbar_rotation	arm_flex_r	arm_add_r	arm_rot_r	elbow_flex_r	pro_sup_r	wrist_flex_r	wrist_dev_r	arm_flex_l	arm_add_l	arm_rot_l	elbow_flex_l	pro_sup_l	wrist_flex_l	wrist_dev_l
      9.19442857	     -2.06315871	     -3.20297605	     -1.47050268	      0.87675899	      0.93678191	      0.43285501	     31.62732956	     -4.15044685	     -7.78395170	     52.07469780	     52.07469780	      4.79823837	    -14.05704842	      2.78562210	      7.29068701	     -2.69226783	    -10.56826819	     15.68289675	     15.68289675	     11.83416957	    -13.42896893	     -3.53240198	     -9.72769581	      6.14627101	      3.29418384	     -2.73787843	    -11.60350711	     -6.25951663	     29.09415974	     46.48013285	      0.00000000	      0.00000000	     18.89502876	    -14.09501835	     -1.74287709	     55.57414673	     46.57493704	      0.00000000	      0.00000000
      9.20635714	     -2.10101389	     -3.27618683	     -1.73711940	      0.87690970	      0.93653159	      0.43323405	     31.56279763	     -3.86433390	     -7.98780671	     48.39051367	     48.39051367	      4.18180336	    -13.24802471	      1.05465446	      6.59197183	     -2.76867737	    -10.88244721	     15.32327619	     15.32327619	     12.01925607	    -13.21281447	     -4.01750548	     -9.81058445	      6.35057876	      2.57206901	     -2.83183640	    -11.33399150	     -7.36910905	     25.99834293	     46.69136906	      0.00000000	      0.00000000	     18.40605436	    -14.85829418	     -3.00720281	     59.66217948	     46.76254069	      0.00000000	      0.00000000
      9.21828571	     -2.12574154	     -3.36122756	     -1.97792852	      0.87708056	      0.93619440	      0.43364347	     31.39159600	     -3.56040605	     -8.25478911	     44.61682972	     44.61682972	      4.21504658	    -11.95720363	      1.22529367	      5.91815806	     -2.83872418	    -11.04642411	     15.04115582	     15.04115582	     12.31477208	    -13.17379980	     -4.10414722	     -9.89575127	      6.61100927	      2.81320257	     -4.24600602	    -11.45041851	     -7.47992165	     25.11243177	     46.72601434	      0.00000000	      0.00000000	     19.43959234	    -14.90970263	     -3.35616584	     60.91143255	     46.82116443	      0.00000000	      0.00000000
      9.23021429	     -2.23754027	     -3.40617325	     -2.21837952	      0.87731887	      0.93556549	      0.43417015	     31.19735138	     -3.26118926	     -8.53220816	     40.70196651	     40.70196651	      4.24059615	    -10.54596251	      1.42601399	      5.34874566	     -2.87956721	    -11.24882083	     14.78538044	     14.78538044	     12.60879379	    -13.08507836	     -4.24201375	     -9.85252979	      6.81331791	      2.97310529	     -5.59412553	    -11.50181773	     -7.59095218	     24.35921419	     46.75609768	      0.00000000	      0.00000000	     20.33955209	    -15.08766742	     -3.69277250	     62.29381453	     46.87817699	      0.00000000	      0.00000000
      9.24214286	     -2.20622423	     -3.31432418	     -2.49294057	      0.87776266	      0.93492056	      0.43478066	     30.71020940	     -3.12566190	     -8.93039069	     36.62928566	     36.62928566	      3.83845914	     -8.84110684	      0.30046227	      4.59526553	     -2.80437816	    -11.76862462	     14.51829947	     14.51829947	     12.91311477	    -12.61410567	     -4.70635998	    -10.08789624	      6.77729399	      2.89240982	     -6.58560422	    -11.48319912	     -8.43807464	     23.41278107	     46.86606057	      0.00000000	      0.00000000	     20.22005828	    -15.41514268	     -4.68656969	     66.25188044	     47.03583593	      0.00000000	      0.00000000
      9.25407143	     -2.27331621	     -3.30971184	     -2.68604095	      0.87831361	      0.93412810	      0.43546384	     30.18827309	     -2.83891078	     -9.36385988	     32.48871958	     32.48871958	      3.68272747	     -7.12398179	      0.69135438	      4.00096990	     -2.80153183	    -11.94736337	     14.34255128	     14.34255128	     13.23677906	    -12.55941154	     -4.88286103	    -10.06468593	      6.91970979	      2.97718858	     -7.80330802	    -11.60187499	     -8.59806685	     22.83393884	     46.89503538	      0.00000000	      0.00000000	     20.96959928	    -15.54160041	     -5.02455099	     67.51591658	     47.09173876	      0.00000000	      0.00000000
      9.26600000	     -2.31832375	     -3.28114761	     -2.88116734	      0.87909380	      0.93318857	      0.43628058	     29.54877066	     -2.56442510	     -9.90838009	     28.41028584	     28.41028584	      3.47681959	     -5.15388555	      1.18837788	      3.33340853	     -2.77588590	    -12.17996184	     14.10804931	     14.10804931	     13.57297738	    -12.36208770	     -5.11530406	    -10.06414105	      6.97233296	      3.11549411	     -9.06543804	    -11.71143734	     -8.78157008	     22.40500233	     46.91879639	      0.00000000	      0.00000000	     21.57852371	    -15.57868195	     -5.34353514	     69.10224379	     47.15026147	      0.00000000	      0.00000000
